<!DOCTYPE svg PUBLIC "-//W3C//DTD SVG 20010904//EN" "http://www.w3.org/TR/2001/REC-SVG-20010904/DTD/svg10.dtd">
<svg version="1.0" xmlns="http://www.w3.org/2000/svg" width="140px" height="148px" viewBox="0 0 1400 1480" preserveAspectRatio="xMidYMid meet">
<g id="layer101" fill="#2299d3" stroke="none">
 <path d="M0 740 l0 -740 700 0 700 0 0 740 0 740 -700 0 -700 0 0 -740z"/>
 </g>
<g id="layer102" fill="#1ca1db" stroke="none">
 <path d="M0 740 l0 -740 700 0 700 0 0 740 0 740 -700 0 -700 0 0 -740z m784 572 c2 -4 -82 -87 -187 -184 -119 -109 -194 -172 -199 -165 -3 7 -8 71 -10 144 l-3 131 54 27 c29 15 74 33 100 40 50 14 237 20 245 7z m260 -234 c34 -31 59 -58 56 -61 -9 -8 -453 -138 -457 -133 -4 4 129 361 149 399 10 19 41 -7 252 -205z m124 -46 c-8 -10 -9 -13 -1 -9 11 7 24 -6 30 -28 1 -5 12 -37 24 -70 15 -41 23 -89 25 -152 3 -90 -7 -156 -20 -123 -12 32 -96 340 -96 353 0 20 30 58 41 51 6 -3 5 -12 -3 -22z m-379 -357 c72 -82 131 -152 131 -155 0 -7 -350 -43 -356 -37 -4 3 41 252 62 346 6 29 -10 44 163 -154z"/>
 </g>
<g id="layer103" fill="#8f8f8f" stroke="none">
 <path d="M0 740 l0 -740 700 0 700 0 0 740 0 740 -700 0 -700 0 0 -740z m784 572 c2 -4 -82 -87 -187 -184 -119 -109 -194 -172 -199 -165 -3 7 -8 73 -9 147 l-3 134 54 25 c29 13 74 30 99 37 51 13 237 19 245 6z m260 -234 c34 -31 59 -58 56 -61 -9 -8 -453 -138 -457 -133 -4 4 129 361 149 399 10 19 41 -7 252 -205z m147 -65 c12 -26 28 -65 36 -87 18 -50 28 -217 16 -270 -8 -38 -11 -31 -61 150 -29 104 -52 194 -52 199 0 11 28 55 35 55 3 0 14 -21 26 -47z m-402 -338 c72 -82 131 -152 131 -155 0 -7 -350 -43 -356 -37 -4 3 41 252 62 346 6 29 -10 44 163 -154z"/>
 </g>
<g id="layer104" fill="#4eaedc" stroke="none">
 <path d="M0 740 l0 -740 700 0 700 0 0 740 0 739 -700 1 -700 0 0 -740z m784 572 c2 -4 -82 -87 -187 -184 -119 -109 -194 -172 -199 -165 -3 7 -8 73 -9 147 l-3 134 54 25 c29 13 74 30 99 37 51 13 237 19 245 6z m260 -234 c34 -31 59 -58 56 -61 -9 -8 -453 -138 -457 -133 -4 4 129 361 149 399 10 19 41 -7 252 -205z m147 -65 c12 -26 28 -65 36 -87 18 -50 28 -217 16 -270 -8 -38 -11 -31 -61 150 -29 104 -52 194 -52 199 0 11 28 55 35 55 3 0 14 -21 26 -47z m-402 -338 c72 -82 131 -152 131 -155 0 -7 -350 -43 -356 -37 -4 3 41 252 62 346 6 29 -10 44 163 -154z"/>
 </g>
<g id="layer105" fill="#65b8e0" stroke="none">
 <path d="M0 740 l0 -740 700 0 700 0 0 740 0 739 -700 1 -700 0 0 -740z m844 560 c109 -37 170 -74 241 -145 77 -77 126 -160 150 -250 15 -61 19 -220 6 -265 -9 -28 -16 -7 -86 246 l-37 131 -116 -35 c-65 -19 -173 -51 -242 -72 l-125 -37 -70 19 c-38 11 -93 26 -121 34 l-51 15 -7 147 c-8 171 -11 165 100 202 129 43 252 47 358 10z m-59 -616 c80 -91 145 -168 143 -169 -7 -7 -359 -38 -364 -32 -4 3 8 82 25 174 34 178 38 193 45 193 2 0 70 -75 151 -166z"/>
 </g>
<g id="layer106" fill="#afafaf" stroke="none">
 <path d="M0 740 l0 -740 700 0 700 0 0 740 0 739 -700 1 -700 0 0 -740z m850 562 c102 -35 164 -74 237 -147 142 -142 200 -337 156 -523 -3 -13 -9 -20 -13 -15 -4 4 -31 94 -60 198 -29 105 -54 192 -56 194 -2 2 -111 -29 -243 -69 l-240 -72 -118 34 -118 34 -6 59 c-4 33 -7 103 -8 156 l-1 96 60 27 c129 58 290 69 410 28z m-464 -387 c-3 -9 -31 -114 -61 -233 -30 -119 -60 -234 -66 -256 l-11 -39 -33 47 c-71 101 -111 243 -101 361 4 38 11 74 15 78 5 5 63 20 128 32 146 29 136 28 129 10z m384 -210 c63 -71 125 -142 139 -157 13 -15 22 -30 19 -34 -7 -6 -360 -44 -369 -38 -5 3 55 339 67 373 4 13 6 13 18 0 7 -8 64 -72 126 -144z"/>
 </g>
<g id="layer107" fill="#90cce9" stroke="none">
 <path d="M0 740 l0 -740 700 0 700 0 0 739 0 740 -700 0 -700 1 0 -740z m850 562 c102 -35 164 -74 237 -147 142 -142 200 -337 156 -523 -3 -13 -9 -20 -13 -15 -4 4 -31 94 -60 198 -29 105 -54 192 -56 194 -2 2 -111 -29 -243 -69 l-240 -72 -118 34 -118 34 -6 59 c-4 33 -7 103 -8 156 l-1 96 60 27 c129 58 290 69 410 28z m-464 -387 c-3 -9 -31 -114 -61 -233 -30 -119 -60 -234 -66 -256 l-11 -39 -33 47 c-71 101 -111 243 -101 361 4 38 11 74 15 78 5 5 63 20 128 32 146 29 136 28 129 10z m384 -210 c63 -71 125 -142 139 -157 13 -15 22 -30 19 -34 -7 -6 -360 -44 -369 -38 -5 3 55 339 67 373 4 13 6 13 18 0 7 -8 64 -72 126 -144z"/>
 </g>
<g id="layer108" fill="#badff0" stroke="none">
 <path d="M0 740 l0 -740 700 0 700 0 0 739 0 740 -700 0 -700 1 0 -740z m815 575 c201 -51 353 -194 421 -395 14 -41 19 -83 18 -165 0 -97 -4 -118 -28 -177 l-28 -68 -112 0 c-61 0 -163 -7 -226 -14 -63 -8 -160 -17 -215 -21 -96 -6 -105 -8 -229 -68 l-129 -61 -43 47 c-89 99 -139 245 -132 387 2 47 7 90 11 96 3 6 63 22 133 35 l126 23 -3 155 -4 155 55 28 c112 57 264 74 385 43z"/>
 <path d="M875 937 c-126 -38 -232 -71 -234 -73 -2 -2 63 -79 145 -173 82 -93 152 -166 155 -163 8 8 171 474 167 477 -2 1 -106 -29 -233 -68z"/>
 <path d="M392 922 c2 -5 37 -106 78 -225 51 -148 77 -212 82 -200 7 18 68 340 68 360 0 5 -49 24 -109 41 -120 35 -124 36 -119 24z"/>
 </g>
<g id="layer109" fill="#dedfdf" stroke="none">
 <path d="M0 740 l0 -740 700 0 700 0 0 739 0 740 -700 0 -700 1 0 -740z m869 561 c240 -88 392 -297 391 -541 -1 -85 -12 -142 -42 -212 l-21 -49 -125 2 -125 1 2 -91 c1 -50 -1 -91 -6 -91 -4 0 -90 32 -191 71 -101 39 -185 69 -188 66 -2 -2 12 -46 32 -98 20 -52 42 -111 50 -133 l14 -39 -55 7 c-59 7 -167 44 -210 72 l-26 17 88 89 c48 48 84 88 80 88 -4 0 -62 -27 -128 -61 l-121 -60 -25 23 c-45 42 -103 142 -128 221 -72 226 10 483 202 630 117 89 195 116 345 116 94 1 117 -3 187 -28z"/>
 <path d="M466 733 c37 -103 70 -199 74 -213 8 -28 11 -14 49 190 32 168 37 149 -49 175 -41 12 -89 26 -107 29 l-32 7 65 -188z"/>
 </g>
<g id="layer110" fill="#d2eaf6" stroke="none">
 <path d="M0 738 l0 -738 700 0 700 0 0 738 0 737 -263 -2 c-144 -1 -273 -2 -287 -3 -14 0 -211 1 -437 3 l-413 2 0 -737z m874 562 c241 -93 386 -297 386 -545 0 -85 -9 -130 -42 -208 l-21 -48 -125 2 -125 1 2 -91 c1 -50 -1 -91 -6 -91 -4 0 -90 32 -191 71 -101 39 -185 69 -188 66 -2 -2 12 -46 32 -98 20 -52 42 -111 50 -133 l14 -39 -55 7 c-59 7 -167 44 -210 72 l-26 17 88 89 c48 48 84 88 80 88 -4 0 -62 -27 -128 -61 l-121 -60 -25 23 c-45 42 -103 142 -128 221 -72 227 10 482 205 632 162 125 351 155 534 85z"/>
 <path d="M466 733 c37 -103 70 -199 74 -213 8 -28 11 -14 49 190 32 168 37 149 -49 175 -41 12 -89 26 -107 29 l-32 7 65 -188z"/>
 </g>
<g id="layer111" fill="#feffff" stroke="none">
 <path d="M0 738 l0 -738 700 0 700 0 0 738 0 737 -263 -2 c-144 -1 -273 -2 -287 -3 -14 0 -211 1 -437 3 l-413 2 0 -737z m853 573 c153 -53 274 -152 339 -277 52 -100 68 -163 68 -274 0 -165 -41 -262 -164 -388 -98 -101 -133 -124 -232 -158 -100 -33 -217 -41 -307 -20 -68 16 -180 66 -192 87 -4 6 14 34 41 62 l49 52 -52 -49 c-44 -42 -54 -47 -68 -36 -22 18 -19 25 20 45 19 11 33 21 31 23 -2 2 -21 -6 -42 -17 -21 -12 -44 -21 -50 -21 -22 0 -100 97 -133 164 -163 332 34 738 401 821 82 19 215 13 291 -14z"/>
 <path d="M470 420 c-9 -6 -10 -10 -3 -10 6 0 15 5 18 10 8 12 4 12 -15 0z"/>
 <path d="M410 390 c-9 -6 -10 -10 -3 -10 6 0 15 5 18 10 8 12 4 12 -15 0z"/>
 <path d="M1094 388 c-4 -7 -3 -8 4 -4 7 4 12 9 12 12 0 8 -9 4 -16 -8z"/>
 <path d="M1060 370 c-9 -6 -10 -10 -3 -10 6 0 15 5 18 10 8 12 4 12 -15 0z"/>
 </g>

</svg>